<svg id="svg" version="1.1" xmlns="http://www.w3.org/2000/svg" xmlns:xlink="http://www.w3.org/1999/xlink" width="400" height="108.5168259243872" viewBox="0, 0, 400,108.5168259243872"><g id="svgg"><path id="path0" d="M86.424 10.988 C 86.310 11.173,86.573 11.372,86.727 11.218 C 86.885 11.059,86.856 10.833,86.677 10.833 C 86.590 10.833,86.477 10.903,86.424 10.988 M64.477 26.452 C 63.764 26.512,63.645 26.590,62.977 27.446 C 62.577 27.957,61.739 28.984,61.114 29.729 C 58.427 32.933,56.494 35.255,55.405 36.587 C 55.032 37.043,54.245 38.007,53.655 38.728 C 53.066 39.449,52.171 40.547,51.667 41.168 C 51.163 41.788,50.150 43.029,49.417 43.925 C 47.455 46.323,46.900 47.014,46.382 47.705 C 45.473 48.919,45.500 49.235,45.500 37.415 L 45.500 26.496 38.625 26.540 L 31.750 26.583 31.750 53.750 L 31.750 80.917 38.624 80.960 L 45.498 81.004 45.541 69.141 C 45.571 60.640,45.636 57.260,45.768 57.216 C 45.928 57.163,47.506 59.038,50.583 62.937 C 52.354 65.181,53.625 66.763,55.917 69.577 C 56.650 70.477,57.505 71.559,57.817 71.982 C 58.129 72.404,58.617 73.020,58.901 73.350 C 59.184 73.679,59.729 74.354,60.110 74.850 C 60.492 75.345,61.279 76.354,61.860 77.093 C 62.441 77.831,63.367 79.011,63.917 79.716 L 64.917 80.996 73.208 80.998 C 80.931 81.000,81.924 80.948,81.322 80.576 C 81.224 80.516,80.742 79.930,80.250 79.275 C 79.223 77.907,77.525 75.732,75.418 73.083 C 74.907 72.442,74.080 71.392,73.580 70.750 C 71.945 68.651,71.773 68.434,70.505 66.855 C 69.815 65.995,68.875 64.825,68.417 64.253 C 67.958 63.681,67.316 62.883,66.990 62.481 C 66.391 61.743,63.877 58.570,62.186 56.417 C 61.682 55.775,60.844 54.719,60.322 54.070 C 58.703 52.052,58.612 52.487,61.333 49.261 C 63.481 46.716,64.787 45.154,66.560 43.016 C 67.123 42.337,68.146 41.128,68.833 40.328 C 69.521 39.529,70.544 38.322,71.107 37.646 C 71.670 36.970,72.532 35.934,73.023 35.344 C 74.115 34.035,75.704 32.117,76.900 30.667 C 77.391 30.071,78.294 29.021,78.907 28.333 C 80.735 26.282,81.421 26.500,73.131 26.498 C 69.163 26.496,65.767 26.471,65.583 26.441 C 65.400 26.412,64.902 26.416,64.477 26.452 " stroke="none" fill="#f9fafa" fill-rule="evenodd"></path><path id="path1" d="M48.910 0.343 C 48.879 0.395,48.498 0.455,48.065 0.477 C 47.632 0.500,47.137 0.593,46.965 0.685 C 46.793 0.777,46.187 0.859,45.618 0.867 C 45.049 0.875,44.358 0.954,44.083 1.042 C 43.808 1.131,43.246 1.265,42.833 1.341 C 41.027 1.674,40.261 1.873,39.916 2.099 C 39.713 2.232,39.433 2.297,39.293 2.243 C 39.153 2.190,38.758 2.263,38.416 2.406 C 38.073 2.550,37.633 2.667,37.438 2.668 C 37.243 2.668,36.869 2.781,36.606 2.918 C 36.343 3.055,36.033 3.167,35.917 3.167 C 35.800 3.167,35.490 3.279,35.227 3.416 C 34.965 3.553,34.628 3.665,34.479 3.666 C 34.330 3.666,34.115 3.778,34.002 3.915 C 33.888 4.051,33.726 4.120,33.640 4.067 C 33.555 4.014,33.320 4.078,33.118 4.209 C 32.915 4.340,32.544 4.498,32.292 4.560 C 32.040 4.622,31.833 4.747,31.833 4.837 C 31.833 4.926,31.689 5.000,31.514 5.000 C 31.171 5.000,30.120 5.501,30.028 5.708 C 29.997 5.777,29.886 5.833,29.780 5.833 C 29.472 5.833,27.833 6.706,27.833 6.870 C 27.833 6.953,27.758 6.973,27.667 6.917 C 27.575 6.860,27.500 6.898,27.500 7.000 C 27.500 7.102,27.434 7.145,27.353 7.095 C 27.272 7.045,27.028 7.137,26.811 7.298 C 26.594 7.460,26.221 7.691,25.981 7.812 C 25.741 7.933,25.356 8.208,25.124 8.423 C 24.892 8.638,24.657 8.768,24.601 8.712 C 24.546 8.657,24.500 8.699,24.500 8.806 C 24.500 8.912,24.385 9.000,24.245 9.000 C 24.104 9.000,23.946 9.112,23.894 9.250 C 23.841 9.387,23.693 9.500,23.566 9.500 C 23.438 9.500,23.333 9.579,23.333 9.677 C 23.333 9.774,23.274 9.816,23.201 9.771 C 23.034 9.668,20.833 11.274,20.833 11.499 C 20.833 11.591,20.734 11.667,20.613 11.667 C 20.492 11.667,20.141 11.892,19.833 12.167 C 19.525 12.442,19.207 12.667,19.127 12.667 C 19.046 12.667,19.027 12.742,19.083 12.833 C 19.140 12.925,19.076 13.000,18.941 13.000 C 18.807 13.000,18.496 13.238,18.251 13.529 C 18.007 13.820,17.644 14.070,17.445 14.086 C 17.170 14.107,17.097 14.204,17.139 14.492 C 17.171 14.711,17.124 14.827,17.028 14.768 C 16.937 14.711,16.425 15.186,15.890 15.821 C 15.355 16.457,14.828 16.983,14.720 16.989 C 14.611 16.995,14.375 17.206,14.195 17.458 C 14.014 17.710,13.447 18.363,12.934 18.908 C 12.421 19.454,11.958 20.035,11.906 20.200 C 11.854 20.365,11.741 20.500,11.655 20.500 C 11.570 20.500,11.500 20.585,11.500 20.689 C 11.500 20.793,11.331 21.043,11.125 21.244 C 10.631 21.726,10.237 22.224,10.000 22.666 C 9.895 22.864,9.675 23.158,9.512 23.321 C 9.350 23.483,9.112 23.853,8.984 24.142 C 8.857 24.430,8.697 24.667,8.630 24.667 C 8.484 24.667,7.917 25.697,7.966 25.875 C 7.985 25.944,7.928 26.000,7.841 26.000 C 7.754 26.000,7.475 26.450,7.223 27.000 C 6.971 27.550,6.705 28.000,6.632 28.000 C 6.559 28.000,6.500 28.113,6.500 28.250 C 6.500 28.387,6.417 28.500,6.316 28.500 C 6.214 28.500,6.168 28.597,6.214 28.715 C 6.345 29.057,5.856 29.639,5.679 29.353 C 5.425 28.943,5.180 29.291,5.368 29.792 C 5.558 30.295,5.056 31.458,4.686 31.375 C 4.457 31.324,4.452 31.432,4.664 31.828 C 4.785 32.055,4.764 32.158,4.580 32.228 C 4.444 32.280,4.333 32.431,4.333 32.563 C 4.333 32.694,4.105 33.310,3.827 33.931 C 3.548 34.552,3.356 35.153,3.400 35.268 C 3.444 35.382,3.374 35.564,3.245 35.671 C 3.115 35.779,2.961 36.123,2.902 36.435 C 2.844 36.748,2.729 37.045,2.648 37.095 C 2.566 37.145,2.500 37.476,2.500 37.829 C 2.500 38.183,2.412 38.502,2.303 38.538 C 2.195 38.574,2.090 38.845,2.070 39.141 C 2.049 39.437,1.914 39.927,1.770 40.231 C 1.626 40.534,1.519 41.063,1.532 41.406 C 1.545 41.749,1.485 42.079,1.400 42.140 C 1.181 42.296,0.667 44.967,0.667 45.947 C 0.667 46.398,0.573 46.860,0.458 46.975 C 0.313 47.120,0.249 47.848,0.248 49.383 C 0.246 50.593,0.191 51.669,0.124 51.774 C 0.057 51.878,0.034 53.041,0.072 54.357 C 0.110 55.673,0.168 57.688,0.201 58.833 C 0.234 59.979,0.344 61.067,0.447 61.250 C 0.549 61.433,0.669 62.157,0.713 62.859 C 0.758 63.561,0.856 64.235,0.932 64.358 C 1.007 64.480,1.098 64.917,1.132 65.327 C 1.167 65.738,1.273 66.221,1.369 66.400 C 1.465 66.579,1.558 67.027,1.576 67.395 C 1.594 67.763,1.696 68.093,1.804 68.129 C 1.912 68.165,2.000 68.412,2.000 68.677 C 2.000 68.943,2.108 69.443,2.240 69.788 C 2.617 70.777,2.711 71.840,2.411 71.725 C 2.276 71.673,2.167 71.714,2.167 71.816 C 2.167 71.991,2.374 72.063,2.758 72.020 C 2.855 72.009,3.030 72.282,3.147 72.625 C 3.431 73.454,3.786 74.310,4.088 74.889 C 4.223 75.148,4.333 75.453,4.333 75.566 C 4.333 75.678,4.481 76.076,4.661 76.449 C 4.841 76.822,4.958 77.284,4.921 77.477 C 4.884 77.669,4.936 77.877,5.036 77.939 C 5.145 78.006,5.171 77.974,5.099 77.859 C 5.034 77.753,5.048 77.667,5.132 77.667 C 5.215 77.667,5.418 77.967,5.584 78.334 C 5.749 78.701,5.981 79.082,6.099 79.180 C 6.217 79.278,6.272 79.465,6.222 79.596 C 6.172 79.726,6.214 79.833,6.316 79.833 C 6.417 79.833,6.500 79.946,6.500 80.083 C 6.500 80.221,6.569 80.333,6.653 80.333 C 6.738 80.333,6.856 80.557,6.916 80.831 C 6.976 81.105,7.093 81.371,7.175 81.422 C 7.257 81.473,7.447 81.773,7.598 82.090 C 7.748 82.407,7.935 82.667,8.014 82.667 C 8.092 82.667,8.115 82.775,8.064 82.908 C 8.010 83.047,8.190 83.363,8.485 83.652 C 8.768 83.929,9.000 84.222,9.000 84.304 C 9.000 84.386,9.262 84.732,9.583 85.072 C 9.904 85.412,10.167 85.760,10.167 85.845 C 10.167 85.930,10.232 86.000,10.313 86.000 C 10.393 86.000,10.561 86.212,10.688 86.472 C 11.077 87.273,13.311 89.945,13.534 89.875 C 13.607 89.852,13.648 89.895,13.625 89.970 C 13.602 90.045,13.883 90.407,14.250 90.775 C 14.617 91.143,15.276 91.832,15.715 92.306 C 16.154 92.779,16.546 93.167,16.585 93.167 C 16.625 93.167,17.043 93.560,17.514 94.042 C 17.985 94.523,18.437 94.898,18.519 94.875 C 18.600 94.852,18.648 94.890,18.625 94.958 C 18.602 95.027,18.636 95.106,18.700 95.133 C 18.764 95.161,19.067 95.423,19.374 95.717 C 19.681 96.010,20.438 96.625,21.058 97.083 C 21.677 97.542,22.405 98.092,22.675 98.306 C 22.946 98.521,23.167 98.649,23.167 98.591 C 23.167 98.534,23.368 98.673,23.614 98.901 C 23.860 99.129,24.122 99.278,24.197 99.231 C 24.272 99.185,24.333 99.219,24.333 99.307 C 24.333 99.395,24.615 99.643,24.958 99.858 C 25.302 100.074,25.846 100.414,26.167 100.616 C 27.106 101.206,30.000 102.686,30.000 102.576 C 30.000 102.521,30.121 102.597,30.269 102.746 C 30.417 102.894,30.624 102.986,30.728 102.951 C 30.832 102.916,30.993 102.991,31.087 103.118 C 31.180 103.245,31.424 103.361,31.628 103.376 C 31.833 103.392,32.000 103.450,32.000 103.505 C 32.000 103.608,33.556 104.279,34.000 104.367 C 34.137 104.394,34.294 104.476,34.347 104.548 C 34.401 104.620,34.663 104.695,34.931 104.715 C 35.198 104.734,35.516 104.844,35.637 104.958 C 35.758 105.073,36.058 105.169,36.304 105.172 C 36.549 105.175,36.896 105.287,37.074 105.422 C 37.251 105.557,37.568 105.667,37.776 105.667 C 37.985 105.667,38.402 105.772,38.703 105.901 C 39.732 106.341,42.474 107.000,43.274 107.000 C 43.594 107.000,44.008 107.082,44.196 107.182 C 44.383 107.282,45.072 107.397,45.726 107.437 C 46.381 107.477,47.134 107.582,47.400 107.671 C 47.666 107.760,48.080 107.833,48.321 107.833 C 48.562 107.833,48.926 107.950,49.131 108.094 C 49.427 108.301,49.520 108.310,49.588 108.135 C 49.732 107.764,54.515 107.828,54.895 108.206 C 55.197 108.507,55.747 108.274,55.540 107.933 C 55.489 107.849,55.544 107.841,55.663 107.914 C 55.991 108.117,57.856 108.019,58.910 107.745 C 59.427 107.610,60.315 107.500,60.883 107.499 C 61.483 107.498,62.121 107.391,62.404 107.244 C 62.672 107.104,63.159 107.005,63.487 107.023 C 63.815 107.041,64.346 106.973,64.667 106.872 C 64.987 106.771,65.625 106.604,66.083 106.502 C 67.853 106.108,68.024 106.060,69.667 105.499 C 69.987 105.389,70.438 105.260,70.667 105.211 C 70.896 105.163,71.202 105.020,71.347 104.895 C 71.492 104.769,71.660 104.715,71.720 104.776 C 71.781 104.836,72.112 104.767,72.457 104.623 C 72.801 104.478,73.683 104.120,74.417 103.826 C 76.258 103.089,78.500 102.004,78.500 101.850 C 78.500 101.780,78.603 101.722,78.729 101.722 C 79.002 101.722,80.971 100.725,81.346 100.397 C 81.491 100.270,81.672 100.167,81.747 100.167 C 81.823 100.167,82.131 99.979,82.431 99.750 C 82.732 99.521,83.023 99.333,83.079 99.333 C 83.221 99.333,85.070 97.946,85.140 97.788 C 85.172 97.716,85.434 97.558,85.724 97.436 C 86.013 97.314,86.653 96.829,87.145 96.357 C 87.638 95.886,88.148 95.500,88.280 95.500 C 88.412 95.500,88.477 95.430,88.424 95.345 C 88.372 95.260,88.480 95.142,88.666 95.084 C 88.851 95.025,89.281 94.644,89.620 94.238 C 89.960 93.832,90.311 93.500,90.402 93.500 C 90.637 93.500,92.142 91.864,92.019 91.741 C 91.963 91.685,92.002 91.664,92.106 91.694 C 92.287 91.748,94.060 90.014,94.750 89.107 C 95.307 88.377,95.658 87.951,96.351 87.167 C 96.715 86.754,97.067 86.340,97.132 86.246 C 98.177 84.740,98.423 84.408,98.535 84.361 C 98.607 84.331,98.667 84.180,98.667 84.026 C 98.667 83.873,98.798 83.665,98.958 83.565 C 99.119 83.464,99.423 83.036,99.635 82.612 C 99.846 82.188,100.095 81.794,100.187 81.738 C 100.279 81.681,100.425 81.473,100.513 81.275 C 100.600 81.078,100.815 80.692,100.990 80.417 C 101.166 80.142,101.314 79.797,101.321 79.651 C 101.328 79.504,101.483 79.211,101.667 79.000 C 101.850 78.789,102.000 78.521,102.000 78.405 C 102.000 78.289,102.056 78.169,102.125 78.139 C 102.296 78.063,102.833 76.879,102.833 76.578 C 102.833 76.443,102.907 76.333,102.997 76.333 C 103.087 76.333,103.207 76.146,103.265 75.917 C 103.322 75.688,103.436 75.500,103.518 75.500 C 103.600 75.500,103.667 75.366,103.667 75.202 C 103.667 75.038,103.814 74.614,103.995 74.261 C 104.175 73.907,104.283 73.553,104.235 73.475 C 104.186 73.397,104.226 73.333,104.323 73.333 C 104.421 73.333,104.500 73.114,104.500 72.845 C 104.500 72.577,104.612 72.245,104.750 72.107 C 104.888 71.970,105.000 71.673,105.000 71.449 C 105.000 71.224,105.112 70.947,105.250 70.833 C 105.388 70.719,105.500 70.443,105.500 70.219 C 105.500 69.995,105.580 69.661,105.678 69.478 C 105.852 69.154,106.027 68.358,106.330 66.520 C 106.411 66.026,106.557 65.543,106.655 65.445 C 106.753 65.347,106.834 64.925,106.834 64.508 C 106.835 64.091,106.954 63.525,107.098 63.250 C 107.303 62.861,107.337 62.484,107.251 61.556 C 107.163 60.606,107.195 60.278,107.407 59.955 C 107.697 59.512,107.718 59.127,107.726 54.167 C 107.734 49.549,107.675 47.667,107.524 47.667 C 107.356 47.667,107.324 47.420,107.279 45.783 C 107.259 45.068,107.166 44.431,107.073 44.367 C 106.856 44.218,106.864 43.456,107.083 43.294 C 107.187 43.218,107.171 43.171,107.042 43.169 C 106.927 43.168,106.831 43.035,106.828 42.875 C 106.825 42.715,106.713 42.438,106.578 42.260 C 106.443 42.082,106.333 41.651,106.333 41.301 C 106.333 40.952,106.258 40.667,106.167 40.667 C 106.075 40.667,106.000 40.402,106.000 40.078 C 106.000 39.754,105.888 39.220,105.750 38.891 C 105.612 38.562,105.500 38.120,105.500 37.908 C 105.500 37.697,105.388 37.411,105.250 37.274 C 105.112 37.136,105.000 36.831,105.000 36.595 C 105.000 36.360,104.926 36.167,104.835 36.167 C 104.745 36.167,104.623 35.867,104.564 35.500 C 104.505 35.133,104.392 34.833,104.312 34.833 C 104.232 34.833,104.167 34.608,104.167 34.332 C 104.167 34.044,104.031 33.714,103.848 33.557 C 103.673 33.407,103.567 33.185,103.614 33.063 C 103.661 32.941,103.579 32.722,103.433 32.576 C 103.286 32.429,103.167 32.165,103.167 31.988 C 103.167 31.811,103.098 31.667,103.013 31.667 C 102.929 31.667,102.811 31.443,102.750 31.169 C 102.690 30.895,102.572 30.628,102.487 30.575 C 102.403 30.523,102.333 30.367,102.333 30.228 C 102.333 30.090,102.221 29.864,102.083 29.726 C 101.946 29.589,101.833 29.340,101.833 29.173 C 101.833 29.006,101.721 28.826,101.583 28.773 C 101.446 28.720,101.333 28.561,101.333 28.419 C 101.333 28.167,100.570 26.834,100.331 26.667 C 100.265 26.621,100.162 26.424,100.101 26.229 C 100.040 26.034,99.805 25.659,99.579 25.395 C 99.352 25.132,99.167 24.829,99.167 24.722 C 99.167 24.615,99.107 24.503,99.035 24.472 C 98.962 24.442,98.723 24.117,98.503 23.750 C 98.092 23.065,97.026 21.663,96.777 21.481 C 96.701 21.425,96.628 21.313,96.615 21.231 C 96.593 21.090,96.200 20.582,95.667 20.006 C 95.529 19.858,95.122 19.364,94.761 18.910 C 93.726 17.605,89.177 13.141,88.996 13.252 C 88.907 13.308,88.833 13.272,88.833 13.174 C 88.833 13.076,88.609 12.858,88.334 12.691 C 88.059 12.524,87.884 12.338,87.945 12.277 C 88.006 12.216,87.968 12.167,87.860 12.167 C 87.752 12.167,87.501 11.979,87.302 11.750 C 87.103 11.521,86.873 11.333,86.792 11.333 C 86.710 11.333,86.287 11.033,85.853 10.667 C 85.418 10.300,85.015 10.000,84.958 10.000 C 84.901 10.000,84.361 9.662,83.759 9.250 C 83.156 8.837,82.633 8.500,82.595 8.500 C 82.557 8.500,81.937 8.134,81.216 7.687 C 79.649 6.715,77.933 5.833,77.608 5.833 C 77.480 5.833,77.276 5.716,77.157 5.572 C 77.038 5.428,76.808 5.345,76.647 5.387 C 76.487 5.429,76.315 5.359,76.266 5.232 C 76.217 5.104,76.068 5.000,75.935 5.000 C 75.802 5.000,75.481 4.891,75.222 4.759 C 74.627 4.454,74.120 4.273,73.958 4.307 C 73.890 4.321,73.833 4.258,73.833 4.167 C 73.833 4.075,73.717 4.000,73.575 4.000 C 73.433 4.000,73.127 3.795,72.895 3.545 C 72.506 3.125,72.460 3.112,72.307 3.387 C 72.192 3.592,72.078 3.634,71.944 3.522 C 71.724 3.340,70.429 2.844,69.917 2.745 C 69.733 2.710,69.246 2.569,68.833 2.432 C 67.285 1.917,64.767 1.333,64.090 1.333 C 63.788 1.333,63.288 1.230,62.979 1.103 C 62.670 0.977,61.951 0.869,61.382 0.863 C 60.813 0.857,60.199 0.773,60.018 0.676 C 59.837 0.579,59.459 0.500,59.178 0.500 C 58.897 0.500,58.667 0.425,58.667 0.333 C 58.667 0.242,58.512 0.167,58.323 0.167 C 58.135 0.167,58.015 0.223,58.058 0.292 C 58.128 0.405,55.837 0.404,50.775 0.291 C 49.781 0.268,48.941 0.292,48.910 0.343 M73.131 26.498 C 81.421 26.500,80.735 26.282,78.907 28.333 C 78.294 29.021,77.391 30.071,76.900 30.667 C 75.704 32.117,74.115 34.035,73.023 35.344 C 72.532 35.934,71.670 36.970,71.107 37.646 C 70.544 38.322,69.521 39.529,68.833 40.328 C 68.146 41.128,67.123 42.337,66.560 43.016 C 64.787 45.154,63.481 46.716,61.333 49.261 C 58.612 52.487,58.703 52.052,60.322 54.070 C 60.844 54.719,61.682 55.775,62.186 56.417 C 63.877 58.570,66.391 61.743,66.990 62.481 C 67.316 62.883,67.958 63.681,68.417 64.253 C 68.875 64.825,69.815 65.995,70.505 66.855 C 71.773 68.434,71.945 68.651,73.580 70.750 C 74.080 71.392,74.907 72.442,75.418 73.083 C 77.525 75.732,79.223 77.907,80.250 79.275 C 80.742 79.930,81.224 80.516,81.322 80.576 C 81.924 80.948,80.931 81.000,73.208 80.998 L 64.917 80.996 63.917 79.716 C 63.367 79.011,62.441 77.831,61.860 77.093 C 61.279 76.354,60.492 75.345,60.110 74.850 C 59.729 74.354,59.184 73.679,58.901 73.350 C 58.617 73.020,58.129 72.404,57.817 71.982 C 57.505 71.559,56.650 70.477,55.917 69.577 C 53.625 66.763,52.354 65.181,50.583 62.937 C 47.506 59.038,45.928 57.163,45.768 57.216 C 45.636 57.260,45.571 60.640,45.541 69.141 L 45.498 81.004 38.624 80.960 L 31.750 80.917 31.750 53.750 L 31.750 26.583 38.625 26.540 L 45.500 26.496 45.500 37.415 C 45.500 49.235,45.473 48.919,46.382 47.705 C 46.900 47.014,47.455 46.323,49.417 43.925 C 50.150 43.029,51.163 41.788,51.667 41.168 C 52.171 40.547,53.066 39.449,53.655 38.728 C 54.245 38.007,55.032 37.043,55.405 36.587 C 56.494 35.255,58.427 32.933,61.114 29.729 C 61.739 28.984,62.577 27.957,62.977 27.446 C 63.722 26.493,64.368 26.244,65.583 26.441 C 65.767 26.471,69.163 26.496,73.131 26.498 M123.542 31.615 C 123.702 31.657,123.965 31.657,124.125 31.615 C 124.285 31.573,124.154 31.539,123.833 31.539 C 123.513 31.539,123.381 31.573,123.542 31.615 M249.771 32.133 C 249.601 32.407,249.970 32.763,250.193 32.540 C 250.358 32.375,250.340 32.333,250.107 32.333 C 249.946 32.333,249.860 32.258,249.917 32.167 C 249.973 32.075,249.982 32.000,249.936 32.000 C 249.891 32.000,249.816 32.060,249.771 32.133 M226.904 41.476 C 227.038 41.609,227.266 41.664,227.428 41.602 C 227.796 41.461,227.616 41.281,227.083 41.257 C 226.724 41.242,226.700 41.271,226.904 41.476 M219.944 49.944 C 219.768 50.121,219.814 50.290,220.067 50.387 C 220.205 50.440,220.286 50.382,220.266 50.243 C 220.221 49.935,220.082 49.807,219.944 49.944 M356.865 50.012 C 356.898 50.111,356.996 50.192,357.083 50.192 C 357.170 50.192,357.269 50.111,357.301 50.012 C 357.334 49.914,357.236 49.833,357.083 49.833 C 356.931 49.833,356.832 49.914,356.865 50.012 M350.742 53.653 C 350.805 53.755,350.920 53.800,350.997 53.752 C 351.075 53.704,351.176 53.742,351.223 53.836 C 351.270 53.931,351.289 53.913,351.265 53.796 C 351.242 53.679,351.088 53.557,350.925 53.526 C 350.740 53.490,350.670 53.538,350.742 53.653 M308.590 59.155 C 308.429 59.416,308.736 59.480,308.965 59.233 C 309.141 59.042,309.136 59.000,308.933 59.000 C 308.797 59.000,308.643 59.070,308.590 59.155 M206.722 61.417 C 206.722 61.559,206.790 61.653,206.874 61.625 C 206.957 61.598,207.025 61.504,207.025 61.417 C 207.025 61.330,206.957 61.236,206.874 61.208 C 206.790 61.180,206.722 61.274,206.722 61.417 M332.667 63.167 C 332.472 63.293,332.518 63.329,332.875 63.331 C 333.127 63.332,333.333 63.258,333.333 63.167 C 333.333 62.956,332.993 62.956,332.667 63.167 M399.709 64.917 C 399.711 65.283,399.745 65.414,399.785 65.206 C 399.824 64.999,399.823 64.699,399.781 64.540 C 399.739 64.380,399.707 64.550,399.709 64.917 M141.629 68.593 C 141.433 68.789,141.720 69.333,142.019 69.333 C 142.386 69.333,142.407 69.195,142.101 68.792 C 141.866 68.481,141.778 68.444,141.629 68.593 M399.705 70.167 C 399.705 70.487,399.740 70.619,399.782 70.458 C 399.823 70.298,399.823 70.035,399.782 69.875 C 399.740 69.715,399.705 69.846,399.705 70.167 M184.539 71.500 C 184.539 71.821,184.573 71.952,184.615 71.792 C 184.657 71.631,184.657 71.369,184.615 71.208 C 184.573 71.048,184.539 71.179,184.539 71.500 M354.542 74.615 C 354.702 74.657,354.965 74.657,355.125 74.615 C 355.285 74.573,355.154 74.539,354.833 74.539 C 354.512 74.539,354.381 74.573,354.542 74.615 M100.865 81.012 C 100.898 81.111,100.996 81.192,101.083 81.192 C 101.170 81.192,101.269 81.111,101.301 81.012 C 101.334 80.914,101.236 80.833,101.083 80.833 C 100.931 80.833,100.832 80.914,100.865 81.012 M44.840 107.740 C 45.071 107.971,45.444 107.991,45.444 107.773 C 45.444 107.669,45.273 107.583,45.064 107.583 C 44.826 107.583,44.742 107.642,44.840 107.740 " stroke="none" fill="#337ba3" fill-rule="evenodd"></path><path id="path2" d="M48.781 0.108 C 48.718 0.171,48.667 0.278,48.667 0.346 C 48.667 0.524,49.073 0.441,49.137 0.251 C 49.204 0.056,48.939 -0.050,48.781 0.108 M57.944 0.111 C 57.775 0.281,57.812 0.500,58.010 0.500 C 58.107 0.500,58.143 0.431,58.091 0.346 C 58.039 0.261,58.128 0.157,58.290 0.115 C 58.523 0.054,58.529 0.035,58.319 0.019 C 58.174 0.009,58.006 0.050,57.944 0.111 M91.000 14.887 C 91.000 15.014,92.225 16.252,92.840 16.746 C 93.102 16.957,93.055 16.864,92.708 16.489 C 92.410 16.165,92.167 15.811,92.167 15.700 C 92.167 15.590,92.078 15.500,91.969 15.500 C 91.860 15.500,91.598 15.337,91.386 15.138 C 91.174 14.938,91.000 14.825,91.000 14.887 M15.250 16.333 C 14.892 16.700,14.670 16.994,14.758 16.986 C 14.911 16.972,16.110 15.667,15.970 15.667 C 15.932 15.667,15.608 15.967,15.250 16.333 M5.872 29.167 C 5.758 29.350,5.721 29.500,5.792 29.500 C 5.862 29.500,6.013 29.350,6.128 29.167 C 6.242 28.983,6.279 28.833,6.208 28.833 C 6.138 28.833,5.987 28.983,5.872 29.167 M243.578 29.797 C 243.639 29.955,243.571 29.992,243.347 29.921 C 242.992 29.808,241.929 30.373,242.126 30.570 C 242.194 30.638,242.175 30.679,242.083 30.661 C 241.674 30.578,241.433 30.715,240.726 31.433 C 239.962 32.207,239.451 33.119,239.624 33.399 C 239.676 33.483,239.638 33.502,239.540 33.441 C 239.056 33.142,238.916 37.161,239.395 37.583 C 239.499 37.675,239.730 38.027,239.908 38.365 C 240.086 38.703,240.287 38.945,240.354 38.904 C 240.422 38.862,240.525 38.906,240.584 39.001 C 240.643 39.097,240.601 39.154,240.492 39.129 C 240.382 39.104,240.253 39.189,240.206 39.318 C 240.148 39.478,240.205 39.521,240.383 39.453 C 240.527 39.397,240.819 39.481,241.031 39.639 C 241.671 40.115,242.364 40.418,242.734 40.386 C 242.989 40.363,243.005 40.378,242.792 40.440 C 242.457 40.537,242.412 40.759,242.692 40.932 C 242.798 40.998,242.978 40.922,243.093 40.765 C 243.273 40.519,243.397 40.504,243.985 40.663 C 244.701 40.855,246.150 40.635,247.548 40.121 C 249.510 39.399,251.085 36.171,250.498 34.075 C 250.384 33.669,250.334 33.119,250.388 32.854 C 250.481 32.388,250.132 31.833,249.746 31.833 C 249.667 31.833,249.396 31.636,249.145 31.396 C 248.668 30.939,248.375 30.751,247.228 30.166 C 246.364 29.726,243.437 29.429,243.578 29.797 M378.437 30.967 C 378.348 31.111,377.433 31.167,375.157 31.167 C 371.200 31.167,371.332 31.087,371.336 33.458 C 371.384 60.799,371.280 72.137,370.982 72.080 C 370.569 72.000,370.442 72.248,370.674 72.681 C 370.808 72.931,370.916 72.984,371.041 72.859 C 371.165 72.735,371.302 72.841,371.503 73.216 C 371.763 73.701,371.861 73.749,372.561 73.743 C 381.034 73.667,380.648 73.686,381.000 73.333 C 381.325 73.008,381.333 72.774,381.339 63.542 C 381.345 53.693,381.416 52.571,382.072 51.846 C 382.216 51.687,382.333 51.482,382.333 51.391 C 382.333 51.012,383.169 50.449,383.705 50.467 C 384.076 50.479,384.335 50.374,384.517 50.137 C 385.010 49.497,387.667 49.639,387.667 50.305 C 387.667 50.391,387.817 50.500,388.001 50.548 C 388.346 50.639,388.306 51.118,387.934 51.366 C 387.595 51.592,387.964 51.676,388.407 51.474 C 388.779 51.305,388.884 51.311,389.009 51.509 C 389.237 51.869,389.198 52.048,388.917 51.940 C 388.762 51.880,388.667 51.941,388.667 52.099 C 388.667 52.268,388.793 52.337,389.042 52.302 C 389.356 52.258,389.425 52.337,389.469 52.792 C 389.498 53.090,389.576 53.333,389.644 53.333 C 389.711 53.333,389.736 53.597,389.698 53.919 C 389.660 54.241,389.709 54.600,389.806 54.717 C 390.063 55.027,390.077 72.613,389.821 72.699 C 389.502 72.805,390.538 73.833,390.964 73.833 C 391.178 73.833,391.318 73.777,391.276 73.708 C 391.233 73.640,392.998 73.606,395.199 73.634 C 400.417 73.699,400.000 73.963,400.000 70.589 C 400.000 69.176,399.943 67.985,399.874 67.942 C 399.750 67.865,399.759 67.136,399.906 65.333 C 399.956 64.722,399.943 64.611,399.866 65.000 C 399.763 65.520,399.765 56.876,399.868 52.333 C 399.890 51.371,399.840 50.475,399.757 50.342 C 399.674 50.209,399.586 49.946,399.562 49.758 C 399.412 48.582,399.179 47.770,398.955 47.645 C 398.805 47.561,398.733 47.367,398.781 47.181 C 398.857 46.892,398.271 45.833,397.957 45.694 C 397.888 45.663,397.867 45.580,397.911 45.510 C 397.954 45.439,397.730 45.078,397.412 44.706 C 397.094 44.334,396.833 43.949,396.833 43.849 C 396.833 43.748,396.723 43.667,396.589 43.667 C 396.455 43.667,396.265 43.517,396.167 43.333 C 396.064 43.142,395.818 43.000,395.587 43.000 C 395.367 43.000,395.141 42.927,395.086 42.838 C 394.935 42.594,393.527 42.007,392.993 41.967 C 392.735 41.947,392.557 41.875,392.599 41.807 C 392.706 41.635,391.602 41.447,390.999 41.536 C 390.725 41.576,390.500 41.547,390.500 41.471 C 390.500 41.395,390.421 41.333,390.323 41.333 C 390.226 41.333,390.202 41.427,390.269 41.542 C 390.336 41.656,390.224 41.604,390.020 41.425 C 389.708 41.151,389.573 41.129,389.165 41.283 C 388.606 41.494,388.333 41.312,388.333 40.730 C 388.333 40.673,388.206 40.729,388.051 40.855 C 387.808 41.052,387.789 41.049,387.909 40.833 C 388.017 40.640,388.002 40.627,387.842 40.774 C 387.696 40.909,387.685 41.055,387.803 41.277 C 387.956 41.562,387.912 41.584,387.315 41.527 C 386.549 41.454,385.457 41.629,385.567 41.806 C 385.608 41.874,385.457 41.945,385.230 41.963 C 384.343 42.037,381.594 43.615,381.716 43.980 C 381.735 44.037,381.675 44.121,381.583 44.167 C 381.475 44.221,381.403 42.654,381.377 39.667 C 381.300 30.715,381.392 31.167,379.655 31.167 C 379.056 31.167,378.669 31.091,378.628 30.967 C 378.576 30.811,378.534 30.811,378.437 30.967 M4.708 31.172 C 4.502 31.255,4.339 31.419,4.346 31.536 C 4.357 31.705,4.377 31.706,4.444 31.541 C 4.490 31.425,4.589 31.368,4.662 31.414 C 4.735 31.459,4.888 31.385,5.002 31.248 C 5.235 30.967,5.224 30.964,4.708 31.172 M124.667 31.337 C 123.886 31.392,123.573 31.462,123.833 31.523 C 124.063 31.578,123.860 31.590,123.383 31.550 C 121.779 31.417,121.929 29.372,121.885 52.006 C 121.864 62.917,121.813 72.141,121.771 72.506 C 121.727 72.892,121.760 73.129,121.850 73.073 C 121.936 73.020,121.955 72.896,121.894 72.796 C 121.828 72.691,121.859 72.663,121.967 72.730 C 122.069 72.793,122.113 72.945,122.066 73.069 C 121.942 73.392,122.764 73.987,123.183 73.877 C 123.373 73.828,123.454 73.741,123.363 73.685 C 123.272 73.629,125.007 73.606,127.219 73.634 C 132.937 73.705,132.354 74.442,132.323 67.187 C 132.295 60.579,132.320 60.416,133.542 59.139 C 133.659 59.017,134.004 58.598,134.308 58.208 C 134.612 57.819,134.949 57.502,135.056 57.505 C 135.242 57.509,136.852 60.060,137.104 60.750 C 137.171 60.933,137.475 61.378,137.779 61.738 C 138.084 62.099,138.333 62.468,138.333 62.559 C 138.333 62.649,138.462 62.866,138.619 63.040 C 138.776 63.213,138.908 63.594,138.911 63.886 C 138.915 64.299,138.982 64.406,139.211 64.367 C 139.372 64.340,139.553 64.444,139.612 64.598 C 139.671 64.752,139.964 65.242,140.264 65.687 C 140.563 66.131,140.975 66.831,141.180 67.241 C 141.385 67.651,141.623 67.943,141.710 67.890 C 141.796 67.837,141.778 67.959,141.670 68.161 C 141.562 68.363,141.517 68.572,141.570 68.625 C 141.623 68.679,141.667 68.635,141.667 68.528 C 141.667 68.229,141.948 68.297,142.064 68.625 C 142.121 68.785,142.211 69.010,142.264 69.125 C 142.324 69.255,142.235 69.333,142.026 69.333 C 141.842 69.333,141.657 69.202,141.615 69.042 C 141.551 68.796,141.536 68.792,141.519 69.021 C 141.490 69.433,141.946 69.753,142.228 69.518 C 142.433 69.348,143.333 70.205,143.333 70.569 C 143.333 70.619,143.597 71.072,143.919 71.576 C 144.242 72.080,144.578 72.683,144.666 72.916 C 144.935 73.622,145.409 73.680,150.883 73.672 C 157.188 73.662,157.625 73.537,156.620 72.030 C 155.490 70.335,154.333 68.473,154.333 68.348 C 154.333 68.271,154.228 68.120,154.099 68.013 C 153.970 67.906,153.739 67.578,153.587 67.284 C 153.244 66.624,153.001 66.215,152.609 65.633 C 152.430 65.367,152.348 65.049,152.410 64.855 C 152.488 64.607,152.388 64.453,152.000 64.223 C 151.717 64.056,151.345 63.694,151.174 63.418 C 151.003 63.142,150.709 62.676,150.521 62.381 C 150.285 62.012,150.237 61.810,150.365 61.730 C 150.474 61.663,150.505 61.690,150.440 61.796 C 150.378 61.896,150.411 62.029,150.513 62.092 C 150.630 62.164,150.676 62.091,150.638 61.895 C 150.605 61.721,150.437 61.583,150.261 61.583 C 150.087 61.582,149.912 61.485,149.872 61.367 C 149.833 61.248,149.545 60.772,149.234 60.309 C 148.922 59.846,148.667 59.362,148.667 59.233 C 148.667 59.105,148.604 59.000,148.528 59.000 C 148.367 59.000,147.384 57.525,147.304 57.163 C 147.274 57.027,147.119 56.819,146.958 56.699 C 146.798 56.579,146.667 56.416,146.667 56.337 C 146.667 56.258,146.263 55.606,145.770 54.888 C 145.277 54.171,144.734 53.321,144.562 52.999 C 144.390 52.678,144.081 52.179,143.875 51.890 C 143.669 51.601,143.500 51.164,143.500 50.917 C 143.500 50.614,143.396 50.441,143.178 50.385 C 143.001 50.338,142.810 50.179,142.753 50.030 C 142.696 49.882,142.699 49.811,142.761 49.872 C 142.823 49.934,143.137 49.669,143.459 49.284 C 143.807 48.868,144.188 48.583,144.397 48.583 C 144.676 48.583,144.749 48.480,144.752 48.083 C 144.755 47.719,145.080 47.169,145.947 46.063 C 146.602 45.226,147.238 44.365,147.360 44.148 C 147.483 43.931,147.865 43.424,148.208 43.020 C 148.552 42.617,148.833 42.184,148.833 42.060 C 148.833 41.935,148.894 41.833,148.969 41.833 C 149.159 41.833,149.889 40.817,149.889 40.553 C 149.889 40.432,149.922 40.367,149.963 40.407 C 150.049 40.493,150.695 39.753,151.417 38.745 C 151.858 38.127,153.682 35.694,154.036 35.250 C 156.218 32.515,156.451 32.099,155.918 31.894 C 155.781 31.841,155.707 31.737,155.753 31.661 C 155.920 31.392,155.165 31.326,151.067 31.249 C 146.699 31.168,144.932 31.256,145.112 31.547 C 145.173 31.644,145.137 31.668,145.029 31.601 C 144.784 31.450,144.127 31.800,144.258 32.012 C 144.313 32.102,144.296 32.155,144.221 32.132 C 144.029 32.071,142.833 33.336,142.833 33.599 C 142.833 33.717,142.747 33.867,142.641 33.933 C 142.529 34.002,142.493 33.979,142.556 33.878 C 142.615 33.783,142.552 33.612,142.417 33.500 C 142.217 33.334,142.149 33.352,142.055 33.596 C 141.988 33.773,142.021 33.924,142.137 33.962 C 142.470 34.073,142.365 34.320,141.420 35.641 C 140.918 36.342,140.337 37.164,140.129 37.467 C 139.920 37.770,139.450 38.426,139.083 38.926 C 138.717 39.425,138.117 40.251,137.750 40.761 C 137.383 41.271,136.858 41.980,136.583 42.338 C 136.308 42.696,135.783 43.411,135.417 43.927 C 135.050 44.442,134.431 45.269,134.042 45.763 C 133.652 46.258,133.333 46.724,133.333 46.800 C 133.333 47.010,132.350 47.906,132.240 47.796 C 132.121 47.677,132.528 47.000,132.719 47.000 C 132.795 47.000,132.740 46.883,132.597 46.740 C 132.378 46.521,132.331 45.843,132.298 42.448 C 132.218 34.258,132.237 33.233,132.473 32.949 C 132.717 32.655,132.108 31.659,131.478 31.322 C 131.175 31.159,127.077 31.169,124.667 31.337 M283.013 31.468 C 283.006 31.588,282.935 31.646,282.856 31.597 C 282.054 31.102,281.831 39.330,282.617 40.431 C 282.981 40.942,283.836 41.067,284.095 40.647 C 284.145 40.566,286.168 40.500,288.591 40.500 L 292.995 40.500 293.039 56.847 C 293.082 72.809,293.091 73.199,293.407 73.430 C 293.993 73.859,302.397 73.770,302.837 73.330 C 303.167 73.000,303.260 61.915,302.985 55.708 C 302.947 54.860,302.973 54.167,303.042 54.167 C 303.110 54.167,303.167 51.093,303.167 47.335 L 303.167 40.504 308.458 40.508 C 315.042 40.514,314.333 41.031,314.333 36.226 C 314.333 32.422,314.182 31.505,313.550 31.495 C 312.911 31.484,292.826 31.534,288.125 31.558 C 284.953 31.574,283.141 31.523,283.096 31.417 C 283.058 31.325,283.020 31.348,283.013 31.468 M249.917 32.167 C 249.860 32.258,249.946 32.333,250.107 32.333 C 250.340 32.333,250.358 32.375,250.193 32.540 C 250.028 32.705,249.956 32.698,249.837 32.507 C 249.697 32.280,249.752 32.000,249.936 32.000 C 249.982 32.000,249.973 32.075,249.917 32.167 M391.083 40.833 C 390.929 41.082,391.144 41.333,391.510 41.333 C 391.898 41.333,391.943 40.911,391.570 40.768 C 391.224 40.635,391.204 40.638,391.083 40.833 M205.000 41.330 C 204.771 41.405,204.283 41.475,203.917 41.484 C 203.550 41.494,203.035 41.614,202.773 41.751 C 202.510 41.888,202.185 42.000,202.051 42.000 C 201.917 42.000,201.269 42.285,200.612 42.634 C 199.216 43.374,198.737 43.454,198.611 42.972 C 198.562 42.785,198.449 42.679,198.359 42.734 C 198.269 42.790,198.033 42.572,197.834 42.251 L 197.473 41.667 193.314 41.667 L 189.155 41.667 188.679 42.154 L 188.203 42.641 188.258 45.446 C 188.462 55.881,188.494 72.113,188.311 72.457 C 188.148 72.763,188.162 72.885,188.389 73.137 C 188.542 73.305,188.667 73.568,188.667 73.721 C 188.667 74.024,189.083 74.104,189.250 73.833 C 189.396 73.598,191.225 73.625,191.467 73.867 C 191.622 74.022,191.711 74.022,191.867 73.867 C 192.144 73.589,195.167 73.589,195.167 73.867 C 195.167 74.022,195.211 74.022,195.367 73.867 C 195.486 73.748,196.059 73.667,196.783 73.667 C 197.503 73.667,198.000 73.597,198.000 73.496 C 198.000 73.402,198.188 73.254,198.417 73.167 C 198.871 72.994,198.990 72.500,198.578 72.500 C 198.352 72.500,198.325 71.505,198.339 63.750 C 198.349 58.459,198.417 55.000,198.511 55.000 C 198.597 55.000,198.667 54.794,198.668 54.542 C 198.668 54.290,198.774 53.881,198.903 53.634 C 199.075 53.305,199.086 53.166,198.944 53.114 C 198.585 52.984,199.689 51.159,200.457 50.612 C 201.100 50.154,201.202 50.129,201.582 50.333 C 202.039 50.577,202.169 50.522,202.236 50.057 C 202.298 49.627,203.000 49.538,203.000 49.961 C 203.000 50.135,203.049 50.327,203.110 50.387 C 203.272 50.550,203.680 50.157,203.557 49.957 C 203.390 49.687,204.327 49.973,204.865 50.356 C 205.123 50.539,205.333 50.805,205.333 50.946 C 205.333 51.105,205.428 51.166,205.583 51.107 C 205.950 50.966,206.519 52.197,206.625 53.363 C 206.673 53.897,206.768 54.333,206.836 54.333 C 207.054 54.333,207.003 59.999,206.782 60.355 C 206.642 60.581,206.636 60.712,206.762 60.797 C 207.068 61.002,207.179 61.506,206.938 61.598 C 206.676 61.699,206.660 62.932,206.922 62.887 C 207.154 62.847,207.106 63.627,206.862 63.871 C 206.622 64.111,206.598 66.438,206.833 66.583 C 207.064 66.726,207.043 67.557,206.803 67.797 C 206.654 67.946,206.653 68.084,206.799 68.372 C 207.012 68.789,207.159 72.349,206.958 72.225 C 206.890 72.182,206.833 72.372,206.833 72.647 C 206.833 73.484,207.298 73.667,209.420 73.667 C 210.634 73.667,211.335 73.735,211.467 73.867 C 211.622 74.022,211.667 74.022,211.667 73.867 C 211.667 73.721,212.280 73.667,213.928 73.667 C 217.350 73.667,216.989 74.843,217.071 63.417 C 217.136 54.395,217.180 53.475,217.595 52.558 C 217.726 52.269,217.833 51.980,217.833 51.915 C 217.833 51.621,218.861 50.546,219.469 50.204 C 220.129 49.833,220.644 49.951,220.045 50.336 C 219.767 50.514,219.767 50.520,220.055 50.429 C 220.223 50.376,220.392 50.333,220.430 50.333 C 220.469 50.333,220.500 50.229,220.500 50.101 C 220.500 49.632,221.459 49.535,222.631 49.885 C 223.024 50.003,223.293 50.152,223.228 50.216 C 223.164 50.281,223.217 50.336,223.347 50.339 C 223.881 50.351,224.833 51.613,224.833 52.308 C 224.833 52.494,224.903 52.690,224.987 52.742 C 225.198 52.872,225.207 57.500,224.997 57.500 C 224.778 57.500,224.786 58.785,225.006 58.920 C 225.222 59.054,225.179 60.454,224.943 60.969 C 224.813 61.252,224.821 61.443,224.976 61.690 C 225.122 61.924,225.134 62.089,225.014 62.234 C 224.915 62.353,224.903 62.507,224.987 62.596 C 225.210 62.832,225.301 65.181,225.081 64.998 C 224.881 64.832,224.839 65.460,225.030 65.754 C 225.210 66.033,225.180 70.805,224.997 70.918 C 224.768 71.060,224.792 71.892,225.033 72.133 C 225.189 72.289,225.189 72.378,225.033 72.533 C 224.524 73.043,225.460 73.624,226.819 73.642 C 227.223 73.647,227.623 73.748,227.706 73.867 C 227.827 74.038,227.876 74.040,227.943 73.875 C 228.007 73.719,228.825 73.666,231.222 73.664 C 234.819 73.662,235.131 73.616,235.267 73.075 C 235.320 72.864,235.478 72.647,235.617 72.593 C 235.793 72.526,235.821 72.433,235.706 72.290 C 235.387 71.889,235.293 70.551,235.576 70.442 C 235.906 70.316,235.912 69.833,235.583 69.833 C 235.380 69.833,235.333 69.556,235.333 68.333 C 235.333 67.111,235.380 66.833,235.583 66.833 C 235.751 66.833,235.833 66.666,235.833 66.328 C 235.833 66.033,235.729 65.783,235.583 65.727 C 235.398 65.656,235.333 65.361,235.333 64.583 C 235.333 63.806,235.398 63.511,235.583 63.440 C 235.730 63.383,235.833 63.133,235.833 62.833 C 235.833 62.533,235.730 62.283,235.583 62.227 C 235.180 62.072,235.248 60.586,235.678 60.156 C 236.042 59.791,236.008 59.014,235.606 58.516 C 235.490 58.373,235.398 57.365,235.369 55.933 C 235.297 52.404,235.303 52.310,235.621 51.958 C 235.897 51.653,235.898 51.626,235.623 51.425 C 235.464 51.308,235.333 51.123,235.333 51.013 C 235.333 50.904,235.277 50.848,235.208 50.891 C 235.043 50.993,235.055 49.975,235.222 49.708 C 235.296 49.590,235.276 49.500,235.177 49.500 C 235.079 49.500,235.000 49.350,235.000 49.167 C 235.000 48.983,234.927 48.833,234.839 48.833 C 234.750 48.833,234.717 48.728,234.767 48.600 C 234.816 48.472,234.776 48.318,234.678 48.257 C 234.580 48.197,234.500 47.964,234.500 47.740 C 234.500 47.516,234.425 47.333,234.333 47.333 C 234.242 47.333,234.184 47.277,234.206 47.208 C 234.288 46.949,233.787 46.009,233.622 46.111 C 233.526 46.170,233.495 46.143,233.552 46.051 C 233.680 45.844,232.874 44.732,232.643 44.796 C 232.551 44.821,232.517 44.774,232.568 44.691 C 232.620 44.608,232.465 44.344,232.226 44.105 C 231.853 43.732,231.822 43.631,232.012 43.402 C 232.208 43.166,232.177 43.140,231.742 43.183 C 231.471 43.209,231.091 43.144,230.897 43.038 C 230.703 42.932,230.484 42.899,230.412 42.964 C 230.339 43.030,230.326 43.002,230.382 42.903 C 230.527 42.650,228.967 42.001,228.207 41.997 C 227.743 41.996,227.647 41.954,227.833 41.833 C 228.015 41.716,228.024 41.671,227.865 41.669 C 227.745 41.668,227.690 41.597,227.743 41.512 C 227.796 41.426,227.751 41.302,227.644 41.236 C 227.521 41.160,227.493 41.187,227.568 41.309 C 227.774 41.641,227.173 41.724,226.827 41.411 C 226.639 41.240,226.500 41.197,226.500 41.308 C 226.500 41.437,226.175 41.487,225.518 41.459 C 224.978 41.436,224.569 41.360,224.611 41.292 C 224.652 41.223,224.382 41.167,224.010 41.167 C 223.638 41.167,223.333 41.246,223.333 41.343 C 223.333 41.440,223.272 41.482,223.196 41.435 C 222.971 41.296,220.926 41.638,220.863 41.826 C 220.832 41.922,220.630 42.000,220.416 42.000 C 219.857 42.000,219.485 42.174,219.610 42.377 C 219.671 42.474,219.639 42.502,219.538 42.440 C 219.327 42.310,218.500 42.652,218.500 42.870 C 218.500 42.952,218.436 42.980,218.358 42.932 C 218.184 42.824,217.140 43.572,217.251 43.726 C 217.295 43.786,217.241 43.760,217.132 43.668 C 216.833 43.415,216.333 43.466,216.333 43.750 C 216.333 43.887,216.419 44.000,216.523 44.000 C 216.627 44.000,216.516 44.197,216.275 44.437 C 216.035 44.677,215.879 44.939,215.928 45.018 C 215.977 45.098,215.888 45.113,215.730 45.052 C 215.521 44.972,215.468 45.009,215.536 45.187 C 215.771 45.798,214.897 45.448,214.034 44.585 C 213.117 43.668,211.615 42.557,211.171 42.467 C 211.035 42.439,210.824 42.323,210.700 42.208 C 210.502 42.024,209.840 41.927,209.568 42.042 C 209.514 42.065,209.362 41.877,209.229 41.625 C 208.974 41.138,208.759 41.049,208.571 41.353 C 208.468 41.520,206.954 41.466,205.750 41.253 C 205.567 41.220,205.229 41.255,205.000 41.330 M259.907 41.411 C 259.478 41.735,256.072 41.776,255.944 41.458 C 255.876 41.292,255.857 41.292,255.846 41.458 C 255.838 41.595,255.551 41.667,255.014 41.667 C 254.514 41.667,254.162 41.585,254.110 41.458 C 254.043 41.292,254.024 41.292,254.013 41.458 C 254.005 41.595,253.719 41.667,253.187 41.667 C 252.106 41.667,251.907 41.924,251.951 43.262 C 251.979 44.136,252.054 44.372,252.419 44.738 C 252.720 45.038,252.822 45.274,252.749 45.503 C 252.689 45.691,252.721 45.833,252.822 45.833 C 252.920 45.833,253.000 46.021,253.000 46.250 C 253.000 46.479,253.063 46.667,253.140 46.667 C 253.217 46.667,253.375 46.985,253.492 47.375 C 253.608 47.765,253.910 48.529,254.162 49.073 C 254.610 50.042,254.614 50.071,254.310 50.397 C 253.897 50.840,253.902 51.220,254.320 51.088 C 254.546 51.016,254.670 51.082,254.743 51.311 C 254.800 51.490,254.958 51.679,255.094 51.731 C 255.264 51.796,255.309 51.955,255.238 52.239 C 255.159 52.554,255.241 52.751,255.582 53.068 C 255.829 53.296,255.979 53.566,255.915 53.669 C 255.852 53.771,255.915 53.981,256.054 54.136 C 256.193 54.290,256.359 54.624,256.422 54.877 C 256.485 55.130,256.604 55.378,256.685 55.428 C 256.767 55.478,256.833 55.688,256.833 55.895 C 256.833 56.101,256.943 56.415,257.078 56.593 C 257.213 56.771,257.328 57.067,257.333 57.250 C 257.339 57.433,257.454 57.729,257.589 57.907 C 257.900 58.319,257.899 58.500,257.583 58.500 C 257.446 58.500,257.333 58.566,257.333 58.646 C 257.333 58.727,257.446 58.886,257.583 59.000 C 257.721 59.114,257.833 59.313,257.833 59.442 C 257.833 59.571,257.946 59.720,258.083 59.773 C 258.221 59.826,258.333 60.018,258.333 60.200 C 258.333 60.532,258.894 61.383,259.026 61.251 C 259.065 61.213,259.108 61.328,259.121 61.507 C 259.135 61.687,259.072 61.833,258.981 61.833 C 258.891 61.833,258.995 62.077,259.213 62.375 C 259.431 62.673,259.709 63.254,259.831 63.667 C 259.953 64.079,260.141 64.567,260.249 64.750 C 260.357 64.933,260.489 65.233,260.542 65.417 C 260.595 65.600,260.792 66.155,260.981 66.650 C 261.169 67.144,261.284 67.612,261.236 67.689 C 261.189 67.766,261.303 67.994,261.491 68.196 C 261.899 68.633,261.916 68.766,261.583 68.894 C 261.195 69.043,261.288 69.323,261.792 69.524 C 262.049 69.627,262.159 69.740,262.042 69.784 C 261.680 69.918,261.815 70.576,262.292 71.005 C 263.157 71.782,263.589 73.811,263.012 74.388 C 262.914 74.486,262.832 74.683,262.830 74.825 C 262.824 75.293,261.835 76.674,261.371 76.860 C 260.620 77.162,257.669 77.199,257.557 76.908 C 257.458 76.649,257.000 76.570,257.000 76.813 C 257.000 76.893,256.778 77.003,256.508 77.057 C 255.704 77.217,255.512 77.709,255.483 79.672 C 255.469 80.632,255.381 81.514,255.286 81.632 C 255.167 81.782,255.173 81.906,255.307 82.040 C 255.420 82.154,255.500 82.773,255.500 83.541 C 255.500 85.395,255.711 85.583,257.792 85.583 C 258.716 85.583,259.333 85.651,259.333 85.751 C 259.333 85.961,262.059 85.862,262.139 85.649 C 262.169 85.567,262.374 85.546,262.594 85.601 C 262.814 85.656,263.235 85.617,263.530 85.514 C 263.972 85.360,264.092 85.372,264.208 85.580 C 264.393 85.911,264.833 85.907,264.833 85.575 C 264.833 85.432,265.113 85.204,265.458 85.064 C 266.660 84.580,267.255 84.279,267.833 83.860 C 268.611 83.298,270.167 81.799,270.167 81.613 C 270.167 81.435,271.106 80.219,271.610 79.745 C 271.850 79.519,271.966 79.216,271.958 78.829 C 271.952 78.503,272.177 77.770,272.474 77.151 C 272.763 76.546,273.000 75.923,273.000 75.767 C 273.000 75.350,273.448 74.556,273.748 74.441 C 273.929 74.371,273.977 74.217,273.906 73.934 C 273.850 73.711,273.913 73.278,274.046 72.972 C 274.379 72.209,274.750 71.212,274.997 70.417 C 275.112 70.050,275.302 69.525,275.421 69.250 C 275.540 68.975,275.706 68.525,275.791 68.250 C 275.875 67.975,276.013 67.749,276.097 67.747 C 276.484 67.741,276.684 67.472,276.483 67.230 C 276.289 66.996,276.508 65.893,276.844 65.417 C 276.909 65.325,277.016 64.997,277.082 64.688 C 277.156 64.342,277.323 64.095,277.518 64.044 C 277.880 63.949,277.914 63.814,277.642 63.542 C 277.498 63.398,277.513 63.255,277.703 62.964 C 277.842 62.752,278.006 62.353,278.067 62.077 C 278.129 61.791,278.336 61.502,278.547 61.406 C 278.754 61.312,278.886 61.130,278.846 60.994 C 278.731 60.596,278.801 59.939,279.014 59.411 C 279.125 59.139,279.459 58.242,279.758 57.417 C 280.056 56.592,280.462 55.504,280.660 55.000 C 280.858 54.496,281.182 53.609,281.380 53.028 C 281.579 52.448,281.768 52.054,281.801 52.153 C 281.912 52.485,282.500 52.356,282.500 52.000 C 282.500 51.815,282.389 51.667,282.250 51.667 C 282.069 51.667,282.012 51.511,282.042 51.100 C 282.065 50.788,282.140 50.567,282.208 50.609 C 282.277 50.652,282.333 50.607,282.333 50.510 C 282.333 50.413,282.446 50.333,282.583 50.333 C 282.875 50.333,282.921 50.057,282.645 49.965 C 282.511 49.920,282.527 49.758,282.698 49.409 C 282.832 49.138,283.038 48.579,283.157 48.167 C 283.276 47.754,283.470 47.192,283.588 46.917 C 283.706 46.642,283.915 46.117,284.052 45.750 C 284.189 45.383,284.393 44.840,284.504 44.542 C 284.631 44.203,284.821 44.000,285.010 44.000 C 285.405 44.000,285.593 43.692,285.273 43.569 C 285.137 43.517,284.983 43.364,284.931 43.228 C 284.874 43.080,284.908 43.026,285.016 43.093 C 285.129 43.163,285.173 43.059,285.135 42.810 C 285.102 42.594,284.978 42.437,284.859 42.462 C 284.739 42.488,284.684 42.440,284.736 42.356 C 285.042 41.861,284.011 41.667,281.089 41.667 C 279.252 41.667,278.167 41.605,278.167 41.500 C 278.167 41.408,278.017 41.333,277.833 41.333 C 277.650 41.333,277.500 41.408,277.500 41.500 C 277.500 41.751,275.545 41.711,275.448 41.458 C 275.351 41.205,274.750 41.958,274.750 42.333 C 274.750 42.471,274.638 42.583,274.503 42.583 C 274.346 42.583,274.218 42.815,274.153 43.217 C 274.096 43.565,273.964 43.936,273.858 44.042 C 273.753 44.147,273.664 44.462,273.661 44.742 C 273.658 45.021,273.546 45.396,273.411 45.574 C 273.277 45.751,273.167 46.103,273.167 46.355 C 273.167 46.607,273.092 46.860,273.000 46.917 C 272.908 46.973,272.833 47.184,272.832 47.385 C 272.832 47.586,272.719 47.965,272.582 48.227 C 272.445 48.490,272.331 48.865,272.328 49.061 C 272.325 49.256,272.213 49.562,272.078 49.740 C 271.943 49.918,271.833 50.228,271.833 50.429 C 271.833 50.631,271.721 51.010,271.584 51.273 C 271.447 51.535,271.335 51.904,271.334 52.092 C 271.334 52.280,271.260 52.507,271.169 52.597 C 271.079 52.687,270.985 53.033,270.961 53.364 C 270.937 53.696,270.860 53.933,270.792 53.891 C 270.723 53.848,270.667 53.888,270.667 53.978 C 270.667 54.069,270.542 54.268,270.390 54.420 C 270.182 54.628,270.163 54.728,270.315 54.822 C 270.594 54.994,270.488 55.352,270.040 55.757 C 269.756 56.013,269.711 56.144,269.855 56.289 C 270.000 56.433,269.980 56.622,269.774 57.057 C 269.623 57.374,269.500 57.739,269.500 57.867 C 269.500 57.995,269.424 58.176,269.332 58.268 C 269.239 58.361,269.146 58.743,269.124 59.118 C 269.101 59.493,269.032 59.768,268.969 59.730 C 268.905 59.691,268.776 59.792,268.682 59.955 C 268.530 60.217,268.510 60.204,268.505 59.848 C 268.500 59.410,268.053 57.758,267.815 57.294 C 267.734 57.135,267.667 56.921,267.667 56.819 C 267.667 56.717,267.567 56.397,267.444 56.109 C 267.089 55.270,266.811 54.462,266.663 53.833 C 266.453 52.941,266.092 51.870,265.956 51.733 C 265.888 51.666,265.833 51.492,265.832 51.347 C 265.832 51.202,265.735 50.896,265.618 50.667 C 265.500 50.438,265.269 49.762,265.103 49.167 C 264.938 48.571,264.744 47.968,264.672 47.828 C 264.601 47.687,264.490 47.332,264.425 47.038 C 264.360 46.744,264.238 46.461,264.154 46.409 C 264.069 46.356,264.000 46.145,264.000 45.939 C 264.000 45.732,263.890 45.418,263.755 45.240 C 263.621 45.062,263.507 44.767,263.503 44.583 C 263.499 44.400,263.381 43.923,263.242 43.523 C 263.103 43.124,263.037 42.646,263.096 42.461 C 263.160 42.258,263.137 42.165,263.037 42.227 C 262.947 42.283,262.683 42.180,262.452 41.998 C 262.192 41.793,261.777 41.667,261.367 41.667 C 260.930 41.667,260.669 41.581,260.606 41.417 C 260.486 41.103,260.317 41.101,259.907 41.411 M352.050 41.376 C 351.910 41.595,351.127 41.896,350.210 42.082 C 349.913 42.143,349.628 42.262,349.575 42.346 C 349.523 42.431,349.330 42.500,349.147 42.500 C 348.937 42.500,348.858 42.571,348.933 42.692 C 349.003 42.807,348.979 42.840,348.872 42.774 C 348.708 42.673,347.869 42.947,347.667 43.167 C 347.621 43.217,347.358 43.399,347.083 43.571 C 346.151 44.156,344.667 45.532,344.776 45.709 C 344.836 45.806,344.810 45.838,344.718 45.782 C 344.626 45.725,344.338 45.901,344.078 46.173 C 343.817 46.444,343.470 46.667,343.307 46.667 C 343.061 46.667,343.019 46.783,343.066 47.337 C 343.097 47.706,343.046 48.055,342.952 48.113 C 342.846 48.178,342.832 48.130,342.915 47.984 C 343.009 47.820,342.994 47.800,342.867 47.917 C 342.766 48.008,342.468 48.512,342.204 49.037 C 341.880 49.680,341.668 49.935,341.555 49.821 C 341.285 49.551,340.904 50.101,341.153 50.401 C 341.351 50.639,341.251 51.417,340.977 51.767 C 340.898 51.868,340.786 52.318,340.727 52.767 C 340.669 53.216,340.547 53.677,340.457 53.791 C 340.367 53.905,340.333 54.149,340.381 54.332 C 340.429 54.516,340.401 54.667,340.318 54.667 C 340.233 54.667,340.167 56.085,340.167 57.917 C 340.167 59.704,340.223 61.167,340.292 61.167 C 340.360 61.167,340.432 61.373,340.450 61.625 C 340.538 62.828,340.896 64.833,341.024 64.833 C 341.102 64.833,341.167 65.017,341.167 65.242 C 341.167 65.466,341.274 65.710,341.404 65.783 C 341.535 65.857,341.666 66.217,341.696 66.583 C 341.730 67.006,341.826 67.235,341.958 67.208 C 342.073 67.185,342.175 67.260,342.186 67.375 C 342.196 67.490,342.215 67.664,342.228 67.763 C 342.240 67.862,342.513 68.199,342.835 68.513 C 343.792 69.445,344.631 70.572,344.692 71.009 C 344.734 71.305,344.855 71.418,345.134 71.421 C 345.572 71.426,345.848 71.769,345.707 72.135 C 345.633 72.328,345.712 72.363,346.070 72.295 C 346.671 72.180,347.913 72.829,348.633 73.635 C 349.115 74.174,349.207 74.218,349.383 73.986 C 349.548 73.770,349.666 73.757,350.046 73.913 C 350.300 74.018,350.462 74.149,350.406 74.205 C 350.350 74.261,350.453 74.386,350.635 74.483 C 350.883 74.616,351.012 74.603,351.155 74.430 C 351.406 74.128,351.947 74.280,352.052 74.682 C 352.147 75.044,352.798 75.120,352.927 74.783 C 352.973 74.663,353.267 74.567,353.586 74.567 C 353.957 74.567,354.088 74.618,353.956 74.710 C 353.550 74.994,358.787 74.527,359.750 74.194 C 360.025 74.099,360.700 73.887,361.250 73.722 C 361.800 73.558,362.475 73.272,362.750 73.086 C 363.537 72.555,363.891 72.344,364.261 72.182 C 364.710 71.986,366.667 70.009,366.667 69.751 C 366.667 69.641,366.827 69.409,367.023 69.234 C 367.220 69.060,367.590 68.477,367.845 67.940 C 368.101 67.404,368.464 66.856,368.652 66.725 C 368.926 66.533,368.957 66.427,368.811 66.192 C 368.669 65.965,368.704 65.740,368.965 65.199 C 369.151 64.815,369.226 64.500,369.132 64.500 C 368.940 64.500,369.023 64.022,369.358 63.194 C 369.637 62.506,369.159 62.000,368.232 62.000 C 367.638 62.000,367.534 61.866,367.867 61.533 C 368.022 61.378,368.004 61.333,367.783 61.333 C 367.627 61.333,367.350 61.483,367.167 61.667 C 366.878 61.956,366.611 62.000,365.167 62.000 L 363.500 62.000 363.500 61.583 C 363.500 61.324,363.406 61.167,363.250 61.167 C 363.094 61.167,363.000 61.324,363.000 61.583 C 363.000 62.017,362.750 62.154,362.619 61.792 C 362.559 61.625,362.473 61.625,362.191 61.792 C 361.997 61.906,361.471 62.000,361.023 62.000 C 360.110 62.000,359.890 62.172,359.723 63.016 C 359.661 63.328,359.492 63.773,359.347 64.006 C 359.202 64.238,358.934 64.665,358.752 64.955 C 358.436 65.457,357.747 65.932,357.441 65.857 C 357.362 65.837,357.194 65.908,357.066 66.015 C 356.895 66.157,356.774 66.159,356.610 66.022 C 356.342 65.800,356.154 65.939,356.279 66.266 C 356.401 66.584,355.635 66.571,354.680 66.239 C 354.275 66.098,353.738 65.967,353.486 65.949 C 353.235 65.931,353.052 65.893,353.080 65.865 C 353.159 65.785,352.337 65.000,352.174 65.000 C 351.966 65.000,350.833 62.650,350.833 62.220 C 350.833 61.764,350.664 61.316,350.524 61.400 C 350.465 61.435,350.406 61.041,350.394 60.524 C 350.381 60.007,350.333 59.349,350.287 59.063 C 350.222 58.665,350.263 58.548,350.458 58.563 C 350.852 58.594,350.914 58.156,350.530 58.056 C 350.290 57.993,350.212 57.864,350.262 57.609 C 350.356 57.126,350.586 54.635,350.560 54.382 C 350.548 54.271,350.587 54.186,350.645 54.193 C 350.975 54.234,351.138 54.129,351.217 53.824 C 351.288 53.553,351.261 53.519,351.085 53.665 C 350.702 53.983,350.665 53.581,351.017 52.924 C 351.203 52.578,351.313 52.187,351.262 52.056 C 351.211 51.922,351.244 51.861,351.336 51.918 C 351.426 51.974,351.567 51.847,351.649 51.635 C 351.942 50.876,353.077 50.108,353.509 50.377 C 353.881 50.610,354.397 50.406,354.270 50.076 C 354.166 49.805,354.265 49.751,355.125 49.602 C 355.456 49.545,355.667 49.577,355.667 49.686 C 355.667 50.082,356.427 50.489,357.177 50.494 C 358.106 50.501,359.417 51.794,359.068 52.359 C 359.007 52.457,359.045 52.591,359.152 52.657 C 359.259 52.723,359.478 53.146,359.639 53.597 L 359.932 54.417 364.201 54.461 C 367.836 54.499,368.508 54.468,368.723 54.253 C 368.862 54.114,369.057 54.000,369.155 54.000 C 369.253 54.000,369.333 53.925,369.333 53.833 C 369.333 53.742,369.266 53.667,369.184 53.667 C 369.102 53.667,368.989 53.048,368.933 52.292 C 368.876 51.535,368.814 50.729,368.794 50.500 C 368.774 50.271,368.664 49.986,368.550 49.867 C 368.436 49.749,368.262 49.355,368.165 48.992 C 368.067 48.630,367.921 48.333,367.839 48.333 C 367.758 48.333,367.720 48.101,367.756 47.816 C 367.806 47.421,367.750 47.280,367.515 47.219 C 367.346 47.175,367.123 46.953,367.020 46.726 C 366.916 46.500,366.758 46.360,366.668 46.416 C 366.578 46.472,366.542 46.417,366.589 46.295 C 366.637 46.170,366.253 45.655,365.712 45.119 C 364.663 44.080,363.846 43.441,364.084 43.846 C 364.161 43.977,364.017 43.880,363.764 43.632 C 363.253 43.133,362.038 42.495,361.523 42.456 C 361.340 42.442,361.221 42.380,361.260 42.318 C 361.340 42.188,360.748 42.006,360.234 42.002 C 360.042 42.001,359.629 41.872,359.317 41.716 C 358.782 41.449,357.669 41.389,356.704 41.576 C 356.460 41.623,356.364 41.585,356.436 41.469 C 356.510 41.349,356.372 41.314,356.024 41.365 C 355.736 41.408,355.500 41.384,355.500 41.312 C 355.500 41.145,353.279 41.244,352.988 41.424 C 352.859 41.504,352.743 41.479,352.704 41.363 C 352.618 41.104,352.218 41.112,352.050 41.376 M167.731 41.494 C 167.079 41.568,166.254 41.722,165.898 41.835 C 164.225 42.370,163.587 42.649,163.629 42.829 C 163.654 42.937,163.604 42.981,163.518 42.928 C 163.432 42.875,163.149 42.919,162.889 43.026 C 162.629 43.133,162.323 43.205,162.208 43.186 C 162.094 43.167,162.000 43.255,162.000 43.381 C 162.000 43.508,161.719 43.797,161.375 44.025 C 161.031 44.253,160.771 44.534,160.796 44.649 C 160.821 44.764,160.774 44.816,160.691 44.765 C 160.609 44.714,160.044 45.207,159.437 45.861 C 158.373 47.007,158.146 47.302,158.500 47.083 C 158.732 46.940,158.708 47.113,158.434 47.548 C 158.074 48.118,157.919 48.737,158.175 48.578 C 158.312 48.493,158.343 48.516,158.264 48.644 C 158.198 48.751,158.074 48.796,157.988 48.743 C 157.903 48.690,157.833 48.766,157.833 48.912 C 157.833 49.058,157.717 49.222,157.574 49.277 C 157.410 49.340,157.334 49.536,157.366 49.813 C 157.410 50.196,157.362 50.244,156.977 50.205 C 156.697 50.176,156.501 50.257,156.435 50.428 C 156.299 50.782,156.448 51.000,156.826 51.000 C 157.060 51.000,157.146 51.153,157.194 51.653 C 157.228 52.012,157.199 52.270,157.128 52.226 C 156.861 52.061,157.014 52.514,157.333 52.833 C 157.730 53.230,157.757 53.358,157.417 53.227 C 156.925 53.038,157.178 53.474,157.760 53.817 C 158.086 54.010,158.297 54.073,158.228 53.959 C 158.143 53.816,158.192 53.823,158.385 53.979 C 158.640 54.186,158.738 54.127,158.688 53.798 C 158.679 53.732,158.795 53.726,158.946 53.784 C 159.117 53.850,159.180 53.823,159.113 53.714 C 158.784 53.182,162.823 53.157,163.318 53.688 C 163.670 54.066,164.224 54.011,164.072 53.613 C 164.000 53.427,164.148 53.396,164.801 53.459 C 165.728 53.548,166.421 53.218,166.583 52.610 C 167.124 50.574,167.723 49.899,169.483 49.345 C 170.668 48.972,172.722 49.339,172.397 49.865 C 172.320 49.990,172.423 50.014,172.725 49.938 C 173.060 49.854,173.167 49.889,173.167 50.084 C 173.167 50.226,173.350 50.411,173.573 50.496 C 174.161 50.719,174.798 52.341,174.827 53.686 C 174.834 54.001,170.908 54.244,170.185 53.973 C 169.889 53.862,169.707 53.896,169.477 54.104 C 169.306 54.259,169.167 54.307,169.167 54.212 C 169.167 53.934,168.437 53.812,168.250 54.059 C 167.997 54.393,167.400 54.669,166.969 54.650 L 166.583 54.633 166.988 54.520 C 167.727 54.314,167.592 54.000,166.764 54.000 C 166.098 54.000,166.000 54.045,166.000 54.351 C 166.000 54.643,165.929 54.685,165.583 54.598 C 165.204 54.503,165.104 54.592,165.133 55.000 C 165.136 55.046,164.751 55.082,164.278 55.081 C 163.647 55.079,163.358 55.157,163.199 55.373 C 163.079 55.534,162.875 55.667,162.746 55.667 C 162.518 55.667,161.334 56.166,161.167 56.333 C 160.895 56.605,159.193 57.667,159.029 57.667 C 158.922 57.667,158.833 57.745,158.833 57.840 C 158.833 57.936,158.542 58.405,158.186 58.882 C 157.351 60.002,156.956 60.791,157.103 61.047 C 157.168 61.158,157.162 61.197,157.090 61.133 C 156.824 60.893,156.472 61.470,156.665 61.829 C 156.797 62.076,156.794 62.167,156.655 62.167 C 156.550 62.167,156.506 62.274,156.556 62.406 C 156.607 62.537,156.584 62.669,156.506 62.698 C 156.332 62.762,156.210 65.099,156.372 65.261 C 156.436 65.325,156.422 65.502,156.340 65.654 C 156.180 65.953,156.448 67.551,156.639 67.434 C 156.700 67.397,156.769 67.621,156.792 67.933 C 156.814 68.245,156.758 68.500,156.667 68.500 C 156.575 68.500,156.500 68.618,156.500 68.761 C 156.500 68.944,156.597 68.992,156.824 68.920 C 157.097 68.833,157.165 68.918,157.254 69.450 C 157.416 70.422,157.457 70.489,157.848 70.414 C 158.048 70.375,158.167 70.389,158.112 70.444 C 158.057 70.499,158.116 70.693,158.243 70.874 C 158.371 71.056,158.435 71.309,158.386 71.436 C 158.338 71.563,158.372 71.667,158.463 71.667 C 158.554 71.667,158.672 71.834,158.725 72.039 C 158.800 72.326,158.868 72.366,159.020 72.213 C 159.172 72.061,159.312 72.090,159.631 72.341 C 159.859 72.520,160.147 72.667,160.272 72.667 C 160.398 72.667,160.500 72.728,160.500 72.803 C 160.500 72.994,162.496 73.979,163.000 74.036 C 163.494 74.092,163.730 74.355,163.450 74.537 C 163.170 74.719,163.618 74.994,164.198 74.997 C 164.445 74.999,164.689 75.068,164.740 75.151 C 164.842 75.315,165.663 74.998,165.665 74.795 C 165.666 74.728,166.000 74.719,166.407 74.775 C 166.815 74.830,167.284 74.819,167.449 74.750 C 167.615 74.681,168.200 74.594,168.750 74.558 C 169.985 74.476,170.536 74.360,170.440 74.203 C 170.399 74.137,170.615 74.065,170.919 74.043 C 171.624 73.991,173.288 73.002,174.439 71.950 L 175.333 71.133 175.333 71.817 C 175.333 72.389,175.279 72.500,175.000 72.500 C 174.778 72.500,174.667 72.611,174.667 72.833 C 174.667 73.073,174.778 73.167,175.063 73.167 C 175.281 73.167,175.555 73.282,175.671 73.422 C 176.086 73.922,184.997 73.653,184.851 73.145 C 184.815 73.019,184.795 72.752,184.807 72.550 C 184.819 72.348,184.766 72.145,184.691 72.098 C 184.507 71.985,184.665 66.802,184.860 66.558 C 184.955 66.440,184.952 66.343,184.854 66.308 C 184.531 66.192,184.553 62.827,184.877 62.645 C 185.226 62.450,185.258 61.902,184.932 61.717 C 184.706 61.588,184.593 59.333,184.448 52.000 C 184.431 51.129,184.379 50.379,184.333 50.333 C 184.112 50.112,183.833 49.470,183.833 49.183 C 183.833 48.673,183.649 48.326,183.441 48.444 C 183.336 48.504,183.299 48.498,183.360 48.431 C 183.420 48.363,183.397 48.070,183.309 47.779 C 183.041 46.896,183.010 46.653,183.178 46.757 C 183.266 46.812,183.288 46.938,183.227 47.037 C 183.159 47.148,183.193 47.170,183.316 47.094 C 183.533 46.960,183.271 46.500,182.977 46.500 C 182.821 46.500,182.247 45.902,181.656 45.123 C 181.464 44.870,181.226 44.713,181.128 44.774 C 181.021 44.840,180.997 44.806,181.068 44.691 C 181.136 44.581,181.067 44.451,180.909 44.391 C 180.527 44.244,179.915 43.646,179.784 43.292 C 179.723 43.126,179.506 43.000,179.281 43.000 C 179.063 43.000,178.642 42.879,178.347 42.732 C 178.051 42.584,177.633 42.453,177.418 42.440 C 177.204 42.427,177.058 42.387,177.095 42.350 C 177.297 42.148,176.290 41.869,175.832 42.000 C 175.554 42.080,175.367 42.081,175.415 42.003 C 175.685 41.566,170.266 41.207,167.731 41.494 M322.000 41.493 C 321.221 41.552,320.283 41.700,319.917 41.822 C 318.988 42.131,318.015 42.492,317.369 42.767 C 317.068 42.895,316.603 43.000,316.336 43.000 C 316.069 43.000,315.790 43.104,315.717 43.231 C 315.643 43.359,315.433 43.491,315.250 43.526 C 315.067 43.560,314.916 43.718,314.915 43.876 C 314.913 44.188,312.362 46.943,312.138 46.875 C 312.062 46.852,312.000 46.982,312.000 47.163 C 312.000 47.345,311.737 47.904,311.417 48.405 C 311.096 48.907,310.833 49.403,310.833 49.508 C 310.833 49.613,310.730 49.898,310.605 50.141 C 310.156 51.008,309.833 51.849,309.833 52.152 C 309.833 52.321,309.708 52.750,309.555 53.105 C 309.402 53.460,309.295 53.957,309.318 54.210 C 309.399 55.116,309.174 55.689,308.777 55.591 C 308.579 55.543,308.497 55.542,308.596 55.589 C 308.694 55.636,308.740 55.906,308.699 56.189 C 308.651 56.514,308.708 56.758,308.853 56.852 C 309.020 56.959,309.031 57.034,308.892 57.125 C 308.519 57.370,308.533 59.128,308.908 59.029 C 309.195 58.954,309.204 58.974,308.991 59.205 C 308.858 59.348,308.699 59.434,308.637 59.396 C 308.462 59.291,308.270 59.689,308.437 59.810 C 308.517 59.869,308.608 60.179,308.638 60.500 C 308.669 60.829,308.851 61.228,309.055 61.417 C 309.494 61.821,309.636 63.500,309.231 63.500 C 308.917 63.500,308.941 63.670,309.292 63.928 C 309.562 64.127,309.563 64.151,309.304 64.251 C 308.992 64.372,309.523 65.167,309.916 65.167 C 310.020 65.167,310.283 65.598,310.501 66.125 C 311.136 67.664,311.977 68.980,313.020 70.069 C 313.555 70.627,313.994 71.210,313.996 71.365 C 314.001 71.725,314.333 71.937,314.492 71.680 C 314.581 71.536,314.668 71.550,314.819 71.733 C 315.058 72.021,318.262 73.667,318.583 73.667 C 318.701 73.667,318.975 73.853,319.191 74.080 C 319.616 74.529,319.934 74.613,320.037 74.306 C 320.086 74.158,320.235 74.158,320.659 74.306 C 320.966 74.413,321.553 74.500,321.964 74.500 C 322.804 74.500,324.029 74.818,323.913 75.006 C 323.871 75.074,323.939 75.214,324.064 75.317 C 324.331 75.539,324.833 75.389,324.833 75.089 C 324.833 74.789,326.435 74.625,326.856 74.881 C 327.125 75.045,327.224 75.036,327.385 74.832 C 327.662 74.481,329.169 74.102,329.393 74.327 C 329.653 74.587,330.000 74.535,330.000 74.237 C 330.000 74.084,330.279 73.863,330.662 73.713 C 331.026 73.570,331.277 73.377,331.220 73.284 C 331.161 73.189,331.198 73.166,331.302 73.231 C 331.611 73.422,333.572 72.251,334.675 71.217 C 335.242 70.685,335.814 70.273,335.946 70.301 C 336.078 70.329,336.172 70.254,336.156 70.134 C 336.090 69.640,336.196 69.428,336.791 68.867 C 337.177 68.503,337.336 68.251,337.207 68.208 C 337.055 68.157,337.092 68.006,337.338 67.660 C 337.526 67.397,337.695 66.960,337.714 66.690 C 337.734 66.420,337.804 66.232,337.870 66.273 C 337.936 66.314,338.034 66.138,338.089 65.882 C 338.143 65.626,338.257 65.286,338.343 65.127 C 338.914 64.073,338.309 63.333,336.876 63.333 C 336.215 63.333,335.835 63.261,335.786 63.125 C 335.725 62.958,335.640 62.958,335.357 63.125 C 334.874 63.410,333.863 63.387,333.560 63.083 C 333.422 62.946,333.184 62.842,333.030 62.853 C 332.781 62.870,332.782 62.880,333.042 62.948 C 333.480 63.063,333.392 63.333,332.917 63.333 C 332.688 63.333,332.500 63.259,332.500 63.169 C 332.500 62.998,331.772 63.028,331.333 63.217 C 331.196 63.276,330.677 63.345,330.180 63.370 C 329.339 63.413,329.255 63.457,328.955 64.000 C 327.909 65.900,326.777 66.567,324.583 66.577 C 322.775 66.585,320.904 65.796,320.449 64.833 C 320.384 64.696,320.193 64.358,320.025 64.083 C 319.857 63.808,319.627 63.301,319.513 62.957 C 319.400 62.612,319.255 62.362,319.192 62.401 C 319.129 62.440,319.105 62.178,319.140 61.818 L 319.202 61.165 328.638 61.171 L 338.074 61.177 338.367 60.797 C 338.559 60.547,338.661 60.116,338.663 59.542 C 338.665 59.060,338.742 58.667,338.833 58.667 C 338.925 58.667,339.000 58.517,339.000 58.333 C 339.000 58.150,338.925 58.000,338.833 58.000 C 338.732 58.000,338.667 57.274,338.667 56.157 C 338.667 55.097,338.602 54.353,338.516 54.407 C 338.432 54.458,338.401 54.359,338.447 54.186 C 338.492 54.013,338.448 53.821,338.348 53.759 C 338.248 53.697,338.167 53.351,338.167 52.990 C 338.167 52.629,338.092 52.333,338.000 52.333 C 337.908 52.333,337.849 52.277,337.868 52.208 C 337.977 51.813,337.573 50.495,336.917 49.111 C 336.504 48.239,336.167 47.482,336.167 47.429 C 336.167 47.290,335.366 46.393,334.618 45.692 C 334.271 45.367,333.831 44.849,333.641 44.541 C 333.451 44.234,333.255 44.023,333.205 44.073 C 333.051 44.227,332.667 43.810,332.667 43.489 C 332.667 43.088,332.376 42.924,332.088 43.163 C 331.909 43.311,331.714 43.264,331.220 42.953 C 330.624 42.577,330.243 42.442,327.788 41.741 C 327.260 41.590,326.491 41.494,326.080 41.526 C 325.669 41.559,325.333 41.529,325.333 41.460 C 325.333 41.319,324.142 41.331,322.000 41.493 M239.766 42.208 C 239.436 42.607,239.345 42.859,239.422 43.163 C 239.479 43.391,239.534 43.616,239.545 43.664 C 239.555 43.711,239.505 43.997,239.434 44.298 C 239.349 44.654,239.373 44.930,239.500 45.083 C 239.607 45.213,239.638 45.411,239.568 45.524 C 239.381 45.828,239.303 47.872,239.483 47.760 C 239.567 47.709,239.593 47.828,239.542 48.026 C 239.469 48.301,239.502 48.354,239.682 48.252 C 239.872 48.143,239.877 48.161,239.708 48.342 C 239.594 48.466,239.500 48.669,239.500 48.793 C 239.500 48.920,239.592 48.973,239.708 48.914 C 239.823 48.856,239.785 48.916,239.625 49.048 C 239.341 49.281,239.204 50.333,239.458 50.334 C 239.527 50.334,239.564 51.666,239.540 53.292 C 239.516 54.919,239.499 56.550,239.502 56.917 C 239.505 57.283,239.503 60.008,239.498 62.972 C 239.491 67.095,239.535 68.331,239.687 68.238 C 239.825 68.152,239.840 68.186,239.738 68.349 C 239.657 68.478,239.615 69.319,239.645 70.217 C 239.680 71.251,239.625 72.033,239.495 72.345 C 239.308 72.797,239.329 72.874,239.737 73.253 L 240.184 73.667 244.569 73.667 C 250.294 73.667,250.100 73.800,249.692 70.136 C 249.624 69.524,249.609 69.048,249.659 69.079 C 249.709 69.110,249.750 66.562,249.750 63.417 C 249.750 60.272,249.713 57.722,249.667 57.750 C 249.621 57.778,249.592 57.264,249.603 56.609 C 249.614 55.953,249.640 52.967,249.662 49.973 C 249.700 44.788,249.717 44.526,250.017 44.447 C 250.442 44.336,250.421 44.000,249.989 44.000 C 249.595 44.000,249.682 43.397,250.123 43.075 C 250.331 42.923,250.328 42.869,250.098 42.679 C 249.953 42.558,249.833 42.512,249.833 42.576 C 249.833 42.640,249.639 42.461,249.402 42.179 L 248.970 41.667 245.019 41.667 C 242.395 41.667,241.006 41.728,240.885 41.848 C 240.755 41.978,240.673 41.978,240.592 41.848 C 240.413 41.558,240.244 41.632,239.766 42.208 M107.031 43.074 C 107.094 43.144,107.075 43.399,106.988 43.642 C 106.841 44.057,106.846 44.064,107.082 43.760 C 107.388 43.366,107.397 43.223,107.125 43.066 C 107.010 43.001,106.968 43.004,107.031 43.074 M107.169 46.431 C 107.171 46.698,107.243 47.029,107.331 47.167 C 107.440 47.337,107.458 47.204,107.388 46.750 C 107.262 45.926,107.166 45.786,107.169 46.431 M107.644 49.292 C 107.611 49.544,107.628 50.125,107.682 50.583 C 107.771 51.333,107.784 51.287,107.807 50.125 C 107.833 48.828,107.757 48.437,107.644 49.292 M324.583 49.333 C 324.876 49.459,324.859 49.478,324.444 49.488 C 323.473 49.512,324.090 49.916,325.178 49.967 C 325.895 50.001,326.291 50.097,326.382 50.259 C 326.550 50.559,327.234 50.592,327.079 50.292 C 327.020 50.177,327.122 50.269,327.307 50.497 C 327.865 51.183,328.500 52.471,328.500 52.915 C 328.500 53.145,328.556 53.333,328.625 53.333 C 328.694 53.333,328.750 53.520,328.750 53.748 L 328.750 54.164 323.942 54.161 C 319.454 54.159,319.142 54.140,319.254 53.871 C 319.320 53.713,319.471 53.272,319.590 52.892 C 320.063 51.385,320.733 50.500,321.400 50.500 C 321.666 50.500,321.892 50.383,321.964 50.208 C 322.053 49.991,322.276 49.917,322.833 49.917 C 323.512 49.917,323.580 49.881,323.544 49.542 C 323.501 49.135,323.924 49.050,324.583 49.333 M357.301 50.012 C 357.269 50.111,357.170 50.192,357.083 50.192 C 356.996 50.192,356.898 50.111,356.865 50.012 C 356.832 49.914,356.931 49.833,357.083 49.833 C 357.236 49.833,357.334 49.914,357.301 50.012 M0.159 51.121 C 0.113 51.508,0.139 51.761,0.216 51.684 C 0.294 51.606,0.332 51.289,0.300 50.980 C 0.243 50.431,0.240 50.434,0.159 51.121 M268.255 54.491 C 268.109 54.728,268.296 55.000,268.605 55.000 C 268.751 55.000,268.835 54.883,268.804 54.722 C 268.739 54.387,268.406 54.247,268.255 54.491 M0.036 56.333 C 0.035 56.563,0.093 56.938,0.167 57.167 C 0.346 57.727,0.346 57.122,0.167 56.417 C 0.052 55.968,0.039 55.959,0.036 56.333 M107.635 57.375 C 107.597 57.581,107.618 57.938,107.683 58.167 C 107.773 58.486,107.804 58.399,107.817 57.792 C 107.834 56.949,107.751 56.757,107.635 57.375 M107.278 60.111 C 107.217 60.172,107.176 60.528,107.188 60.903 L 107.208 61.583 107.333 60.833 C 107.465 60.040,107.457 59.932,107.278 60.111 M174.080 60.845 C 173.997 61.106,174.055 61.212,174.318 61.281 C 174.701 61.381,174.787 61.755,174.458 61.893 C 174.312 61.955,174.343 62.039,174.562 62.176 C 174.786 62.317,174.817 62.407,174.673 62.496 C 174.562 62.564,174.458 62.912,174.440 63.268 C 174.326 65.608,171.149 67.426,168.583 66.618 C 166.962 66.108,166.424 65.515,166.853 64.713 C 167.047 64.351,167.037 64.272,166.771 64.078 C 165.387 63.066,168.261 60.853,171.000 60.821 C 171.504 60.815,172.067 60.745,172.250 60.667 C 172.990 60.349,174.200 60.467,174.080 60.845 M278.716 60.889 C 278.763 61.011,278.696 61.111,278.567 61.111 C 278.439 61.111,278.333 61.011,278.333 60.889 C 278.333 60.767,278.400 60.667,278.482 60.667 C 278.564 60.667,278.669 60.767,278.716 60.889 M257.333 61.813 C 257.333 62.031,257.764 62.347,257.890 62.221 C 258.119 61.993,257.987 61.667,257.667 61.667 C 257.483 61.667,257.333 61.732,257.333 61.813 M399.782 70.458 C 399.740 70.619,399.705 70.487,399.705 70.167 C 399.705 69.846,399.740 69.715,399.782 69.875 C 399.823 70.035,399.823 70.298,399.782 70.458 M344.362 71.943 C 344.395 72.112,344.533 72.250,344.669 72.250 C 345.026 72.250,344.975 71.766,344.610 71.695 C 344.387 71.653,344.319 71.720,344.362 71.943 M104.579 72.346 C 104.422 72.842,104.553 72.881,104.778 72.405 C 104.883 72.182,104.906 72.000,104.829 72.000 C 104.752 72.000,104.640 72.156,104.579 72.346 M355.125 74.615 C 354.965 74.657,354.702 74.657,354.542 74.615 C 354.381 74.573,354.512 74.539,354.833 74.539 C 355.154 74.539,355.285 74.573,355.125 74.615 M242.042 75.542 C 242.080 75.656,242.211 75.750,242.333 75.750 C 242.456 75.750,242.587 75.656,242.625 75.542 C 242.666 75.418,242.548 75.333,242.333 75.333 C 242.119 75.333,242.000 75.418,242.042 75.542 M8.408 84.348 C 8.262 84.583,8.583 84.904,8.819 84.759 C 9.083 84.596,9.040 84.167,8.760 84.167 C 8.628 84.167,8.469 84.248,8.408 84.348 M7.576 85.178 C 7.514 85.280,7.557 85.450,7.672 85.556 C 7.832 85.704,7.856 85.703,7.773 85.556 C 7.714 85.449,7.755 85.332,7.866 85.295 C 8.012 85.246,8.016 85.196,7.878 85.111 C 7.775 85.047,7.639 85.077,7.576 85.178 M9.833 85.750 C 9.833 85.888,9.908 86.000,10.000 86.000 C 10.092 86.000,10.167 85.888,10.167 85.750 C 10.167 85.612,10.092 85.500,10.000 85.500 C 9.908 85.500,9.833 85.612,9.833 85.750 M10.333 86.147 C 10.333 86.262,10.446 86.470,10.583 86.607 C 10.903 86.927,10.899 86.684,10.578 86.260 C 10.441 86.078,10.333 86.029,10.333 86.147 M15.333 92.052 C 15.333 92.081,15.577 92.325,15.875 92.594 L 16.417 93.083 15.927 92.542 C 15.471 92.037,15.333 91.923,15.333 92.052 M89.833 94.000 C 89.638 94.275,89.508 94.500,89.544 94.500 C 89.581 94.500,89.812 94.275,90.057 94.000 C 90.302 93.725,90.432 93.500,90.346 93.500 C 90.260 93.500,90.029 93.725,89.833 94.000 M87.740 95.736 C 87.563 95.866,87.461 96.017,87.515 96.071 C 87.569 96.125,87.749 96.018,87.916 95.834 C 88.270 95.443,88.197 95.402,87.740 95.736 M44.769 107.492 C 44.820 107.542,44.949 107.587,45.056 107.591 C 45.163 107.595,45.225 107.708,45.194 107.841 C 45.164 107.974,45.197 108.025,45.269 107.954 C 45.546 107.677,45.446 107.400,45.069 107.400 C 44.854 107.400,44.719 107.441,44.769 107.492 M52.788 107.954 C 53.084 107.990,53.609 107.991,53.955 107.955 C 54.300 107.919,54.058 107.889,53.417 107.888 C 52.775 107.887,52.492 107.917,52.788 107.954 " stroke="none" fill="#161c1a" fill-rule="evenodd"></path></g></svg>